<svg width="212" height="175" viewBox="0 0 212 175" fill="none" xmlns="http://www.w3.org/2000/svg">
<g clip-path="url(#clip0_137_12800)">
<g opacity="0.3" filter="url(#filter0_f_137_12800)">
<path d="M88.6715 119.862V121.284H53.5897C52.0475 121.285 50.5687 121.582 49.4781 122.11C48.3874 122.638 47.7739 123.353 47.7722 124.1V150.762C47.7722 151.886 46.8496 152.964 45.2077 153.759C43.5656 154.553 41.3384 155 39.0164 155C36.6944 155 34.4672 154.553 32.8251 153.759C31.1832 152.964 30.2607 151.886 30.2607 150.762V94.2376C30.2607 93.4907 29.6478 92.7746 28.5568 92.2466C27.4656 91.7186 25.986 91.422 24.4431 91.422C22.9002 91.422 21.4204 91.7186 20.3294 92.2466C19.2384 92.7746 18.6255 93.4907 18.6255 94.2376V117.061C18.6228 118.184 17.6995 119.261 16.0581 120.056C14.4166 120.85 12.1911 121.297 9.86974 121.298H-3.35645V119.876H9.86974C11.4121 119.876 12.8908 119.579 13.9814 119.051C15.072 118.523 15.6855 117.807 15.6873 117.061V94.2376C15.6873 93.1136 16.6098 92.0358 18.2518 91.2411C19.8938 90.4464 22.1209 90 24.4431 90C26.7651 90 28.9922 90.4464 30.6344 91.2411C32.2762 92.0358 33.1988 93.1136 33.1988 94.2376V150.762C33.1988 151.509 33.8117 152.225 34.9027 152.753C35.9939 153.281 37.4736 153.578 39.0164 153.578C40.5592 153.578 42.0389 153.281 43.1301 152.753C44.2211 152.225 44.834 151.509 44.834 150.762V124.1C44.8366 122.976 45.7598 121.899 47.4014 121.105C49.0429 120.31 51.2683 119.863 53.5897 119.862H88.6715Z" fill="#DDDDDD" fill-opacity="0.3"/>
<path d="M88.6715 119.862V121.284H123.753C125.296 121.285 126.774 121.582 127.865 122.11C128.956 122.638 129.569 123.353 129.571 124.1V150.762C129.571 151.886 130.493 152.964 132.135 153.759C133.777 154.553 136.005 155 138.327 155C140.649 155 142.876 154.553 144.518 153.759C146.16 152.964 147.082 151.886 147.082 150.762V94.2376C147.082 93.4907 147.695 92.7746 148.786 92.2466C149.877 91.7186 151.357 91.422 152.9 91.422C154.443 91.422 155.923 91.7186 157.014 92.2466C158.105 92.7746 158.718 93.4907 158.718 94.2376V117.061C158.72 118.184 159.644 119.261 161.285 120.056C162.926 120.85 165.152 121.297 167.473 121.298H180.699V119.876H167.473C165.931 119.876 164.452 119.579 163.362 119.051C162.271 118.523 161.658 117.807 161.656 117.061V94.2376C161.656 93.1136 160.733 92.0358 159.091 91.2411C157.449 90.4464 155.222 90 152.9 90C150.578 90 148.351 90.4464 146.709 91.2411C145.067 92.0358 144.144 93.1136 144.144 94.2376V150.762C144.144 151.509 143.531 152.225 142.44 152.753C141.349 153.281 139.869 153.578 138.327 153.578C136.784 153.578 135.304 153.281 134.213 152.753C133.122 152.225 132.509 151.509 132.509 150.762V124.1C132.506 122.976 131.583 121.899 129.942 121.105C128.3 120.31 126.075 119.863 123.753 119.862H88.6715Z" fill="#DDDDDD" fill-opacity="0.3"/>
<path d="M88.6715 119.862V121.284M88.6715 119.862H53.5897C51.2683 119.863 49.0429 120.31 47.4014 121.105C45.7598 121.899 44.8366 122.976 44.834 124.1V150.762C44.834 151.509 44.2211 152.225 43.1301 152.753C42.0389 153.281 40.5592 153.578 39.0164 153.578C37.4736 153.578 35.9939 153.281 34.9027 152.753C33.8117 152.225 33.1988 151.509 33.1988 150.762V94.2376C33.1988 93.1136 32.2762 92.0358 30.6344 91.2411C28.9922 90.4464 26.7651 90 24.4431 90C22.1209 90 19.8938 90.4464 18.2518 91.2411C16.6098 92.0358 15.6873 93.1136 15.6873 94.2376V117.061C15.6855 117.807 15.072 118.523 13.9814 119.051C12.8908 119.579 11.4121 119.876 9.86974 119.876H-3.35645V121.298H9.86974C12.1911 121.297 14.4166 120.85 16.0581 120.056C17.6995 119.261 18.6228 118.184 18.6255 117.061V94.2376C18.6255 93.4907 19.2384 92.7746 20.3294 92.2466C21.4204 91.7186 22.9002 91.422 24.4431 91.422C25.986 91.422 27.4656 91.7186 28.5568 92.2466C29.6478 92.7746 30.2607 93.4907 30.2607 94.2376V150.762C30.2607 151.886 31.1832 152.964 32.8251 153.759C34.4672 154.553 36.6944 155 39.0164 155C41.3384 155 43.5656 154.553 45.2077 153.759C46.8496 152.964 47.7722 151.886 47.7722 150.762V124.1C47.7739 123.353 48.3874 122.638 49.4781 122.11C50.5687 121.582 52.0475 121.285 53.5897 121.284H88.6715M88.6715 119.862H123.753C126.075 119.863 128.3 120.31 129.942 121.105C131.583 121.899 132.506 122.976 132.509 124.1V150.762C132.509 151.509 133.122 152.225 134.213 152.753C135.304 153.281 136.784 153.578 138.327 153.578C139.869 153.578 141.349 153.281 142.44 152.753C143.531 152.225 144.144 151.509 144.144 150.762V94.2376C144.144 93.1136 145.067 92.0358 146.709 91.2411C148.351 90.4464 150.578 90 152.9 90C155.222 90 157.449 90.4464 159.091 91.2411C160.733 92.0358 161.656 93.1136 161.656 94.2376V117.061C161.658 117.807 162.271 118.523 163.362 119.051C164.452 119.579 165.931 119.876 167.473 119.876H180.699V121.298H167.473C165.152 121.297 162.926 120.85 161.285 120.056C159.644 119.261 158.72 118.184 158.718 117.061V94.2376C158.718 93.4907 158.105 92.7746 157.014 92.2466C155.923 91.7186 154.443 91.422 152.9 91.422C151.357 91.422 149.877 91.7186 148.786 92.2466C147.695 92.7746 147.082 93.4907 147.082 94.2376V150.762C147.082 151.886 146.16 152.964 144.518 153.759C142.876 154.553 140.649 155 138.327 155C136.005 155 133.777 154.553 132.135 153.759C130.493 152.964 129.571 151.886 129.571 150.762V124.1C129.569 123.353 128.956 122.638 127.865 122.11C126.774 121.582 125.296 121.285 123.753 121.284H88.6715" stroke="white" stroke-opacity="0.2" stroke-width="0.3"/>
<path d="M87.028 117.862V119.284H51.9462C50.4039 119.285 48.9252 119.582 47.8345 120.11C46.7439 120.638 46.1304 121.353 46.1286 122.1V148.762C46.1286 149.886 45.206 150.964 43.5642 151.759C41.922 152.553 39.6949 153 37.3729 153C35.0508 153 32.8237 152.553 31.1815 151.759C29.5397 150.964 28.6171 149.886 28.6171 148.762V92.2376C28.6171 91.4907 28.0042 90.7746 26.9133 90.2466C25.822 89.7186 24.3424 89.422 22.7995 89.422C21.2566 89.422 19.7769 89.7186 18.6859 90.2466C17.5949 90.7746 16.9819 91.4907 16.9819 92.2376V115.061C16.9793 116.184 16.056 117.261 14.4145 118.056C12.7731 118.85 10.5475 119.297 8.22618 119.298H-5V117.876H8.22618C9.76855 117.876 11.2472 117.579 12.3379 117.051C13.4285 116.523 14.042 115.807 14.0438 115.061V92.2376C14.0438 91.1136 14.9662 90.0358 16.6083 89.2411C18.2503 88.4464 20.4774 88 22.7995 88C25.1216 88 27.3487 88.4464 28.9908 89.2411C30.6327 90.0358 31.5553 91.1136 31.5553 92.2376V148.762C31.5553 149.509 32.1682 150.225 33.2591 150.753C34.3504 151.281 35.83 151.578 37.3729 151.578C38.9157 151.578 40.3954 151.281 41.4866 150.753C42.5775 150.225 43.1904 149.509 43.1904 148.762V122.1C43.1931 120.976 44.1163 119.899 45.7578 119.105C47.3994 118.31 49.6247 117.863 51.9462 117.862H87.028Z" fill="#DDDDDD" fill-opacity="0.7"/>
<path d="M87.028 117.862V119.284H122.11C123.652 119.285 125.131 119.582 126.221 120.11C127.312 120.638 127.926 121.353 127.927 122.1V148.762C127.927 149.886 128.85 150.964 130.492 151.759C132.134 152.553 134.361 153 136.683 153C139.005 153 141.232 152.553 142.874 151.759C144.516 150.964 145.439 149.886 145.439 148.762V92.2376C145.439 91.4907 146.052 90.7746 147.143 90.2466C148.234 89.7186 149.713 89.422 151.256 89.422C152.799 89.422 154.279 89.7186 155.37 90.2466C156.461 90.7746 157.074 91.4907 157.074 92.2376V115.061C157.077 116.184 158 117.261 159.641 118.056C161.283 118.85 163.508 119.297 165.83 119.298H179.056V117.876H165.83C164.287 117.876 162.809 117.579 161.718 117.051C160.627 116.523 160.014 115.807 160.012 115.061V92.2376C160.012 91.1136 159.09 90.0358 157.448 89.2411C155.806 88.4464 153.579 88 151.256 88C148.934 88 146.707 88.4464 145.065 89.2411C143.423 90.0358 142.501 91.1136 142.501 92.2376V148.762C142.501 149.509 141.888 150.225 140.797 150.753C139.706 151.281 138.226 151.578 136.683 151.578C135.14 151.578 133.661 151.281 132.569 150.753C131.478 150.225 130.865 149.509 130.865 148.762V122.1C130.863 120.976 129.94 119.899 128.298 119.105C126.657 118.31 124.431 117.863 122.11 117.862H87.028Z" fill="#DDDDDD" fill-opacity="0.7"/>
<path d="M87.028 117.862V119.284M87.028 117.862H51.9462C49.6247 117.863 47.3994 118.31 45.7578 119.105C44.1163 119.899 43.1931 120.976 43.1904 122.1V148.762C43.1904 149.509 42.5775 150.225 41.4866 150.753C40.3954 151.281 38.9157 151.578 37.3729 151.578C35.83 151.578 34.3504 151.281 33.2591 150.753C32.1682 150.225 31.5553 149.509 31.5553 148.762V92.2376C31.5553 91.1136 30.6327 90.0358 28.9908 89.2411C27.3487 88.4464 25.1216 88 22.7995 88C20.4774 88 18.2503 88.4464 16.6083 89.2411C14.9662 90.0358 14.0438 91.1136 14.0438 92.2376V115.061C14.042 115.807 13.4285 116.523 12.3379 117.051C11.2472 117.579 9.76855 117.876 8.22618 117.876H-5V119.298H8.22618C10.5475 119.297 12.7731 118.85 14.4145 118.056C16.056 117.261 16.9793 116.184 16.9819 115.061V92.2376C16.9819 91.4907 17.5949 90.7746 18.6859 90.2466C19.7769 89.7186 21.2566 89.422 22.7995 89.422C24.3424 89.422 25.822 89.7186 26.9133 90.2466C28.0042 90.7746 28.6171 91.4907 28.6171 92.2376V148.762C28.6171 149.886 29.5397 150.964 31.1815 151.759C32.8237 152.553 35.0508 153 37.3729 153C39.6949 153 41.922 152.553 43.5642 151.759C45.206 150.964 46.1286 149.886 46.1286 148.762V122.1C46.1304 121.353 46.7439 120.638 47.8345 120.11C48.9252 119.582 50.4039 119.285 51.9462 119.284H87.028M87.028 117.862H122.11C124.431 117.863 126.657 118.31 128.298 119.105C129.94 119.899 130.863 120.976 130.865 122.1V148.762C130.865 149.509 131.478 150.225 132.569 150.753C133.661 151.281 135.14 151.578 136.683 151.578C138.226 151.578 139.706 151.281 140.797 150.753C141.888 150.225 142.501 149.509 142.501 148.762V92.2376C142.501 91.1136 143.423 90.0358 145.065 89.2411C146.707 88.4464 148.934 88 151.256 88C153.579 88 155.806 88.4464 157.448 89.2411C159.09 90.0358 160.012 91.1136 160.012 92.2376V115.061C160.014 115.807 160.627 116.523 161.718 117.051C162.809 117.579 164.287 117.876 165.83 117.876H179.056V119.298H165.83C163.508 119.297 161.283 118.85 159.641 118.056C158 117.261 157.077 116.184 157.074 115.061V92.2376C157.074 91.4907 156.461 90.7746 155.37 90.2466C154.279 89.7186 152.799 89.422 151.256 89.422C149.713 89.422 148.234 89.7186 147.143 90.2466C146.052 90.7746 145.439 91.4907 145.439 92.2376V148.762C145.439 149.886 144.516 150.964 142.874 151.759C141.232 152.553 139.005 153 136.683 153C134.361 153 132.134 152.553 130.492 151.759C128.85 150.964 127.927 149.886 127.927 148.762V122.1C127.926 121.353 127.312 120.638 126.221 120.11C125.131 119.582 123.652 119.285 122.11 119.284H87.028" stroke="white" stroke-opacity="0.5" stroke-width="0.3"/>
<path d="M137.972 120.826V121.845H102.891C101.348 121.846 99.8695 122.058 98.7788 122.437C97.6882 122.815 97.0747 123.327 97.0729 123.862V142.964C97.0729 143.769 96.1504 144.541 94.5085 145.111C92.8664 145.68 90.6392 146 88.3172 146C85.9951 146 83.768 145.68 82.1259 145.111C80.484 144.541 79.5614 143.769 79.5614 142.964V102.468C79.5614 101.933 78.9485 101.42 77.8576 101.042C76.7664 100.664 75.2868 100.451 73.7439 100.451C72.2009 100.451 70.7212 100.664 69.6302 101.042C68.5392 101.42 67.9263 101.933 67.9263 102.468V118.819C67.9236 119.624 67.0003 120.396 65.3588 120.965C63.7174 121.534 61.4919 121.854 59.1705 121.855H45.9443V120.837H59.1705C60.7129 120.836 62.1916 120.623 63.2822 120.245C64.3728 119.867 64.9863 119.354 64.9881 118.819V102.468C64.9881 101.663 65.9106 100.891 67.5526 100.322C69.1946 99.7524 71.4217 99.4326 73.7439 99.4326C76.0659 99.4326 78.293 99.7524 79.9352 100.322C81.577 100.891 82.4996 101.663 82.4996 102.468V142.964C82.4996 143.499 83.1125 144.012 84.2035 144.39C85.2947 144.769 86.7744 144.981 88.3172 144.981C89.86 144.981 91.3397 144.769 92.4309 144.39C93.5219 144.012 94.1348 143.499 94.1348 142.964V123.862C94.1374 123.057 95.0606 122.286 96.7021 121.716C98.3437 121.147 100.569 120.827 102.891 120.826H137.972Z" fill="#DDDDDD" fill-opacity="0.3"/>
<path d="M137.972 120.826V121.845H173.054C174.596 121.846 176.075 122.058 177.166 122.437C178.256 122.815 178.87 123.327 178.872 123.862V142.964C178.872 143.769 179.794 144.541 181.436 145.111C183.078 145.68 185.305 146 187.627 146C189.949 146 192.177 145.68 193.819 145.111C195.461 144.541 196.383 143.769 196.383 142.964V102.468C196.383 101.933 196.996 101.42 198.087 101.042C199.178 100.664 200.658 100.451 202.201 100.451C203.744 100.451 205.223 100.664 206.314 101.042C207.405 101.42 208.018 101.933 208.018 102.468V118.819C208.021 119.624 208.944 120.396 210.586 120.965C212.227 121.534 214.453 121.854 216.774 121.855H230V120.837H216.774C215.232 120.836 213.753 120.623 212.662 120.245C211.572 119.867 210.958 119.354 210.957 118.819V102.468C210.957 101.663 210.034 100.891 208.392 100.322C206.75 99.7524 204.523 99.4326 202.201 99.4326C199.879 99.4326 197.652 99.7524 196.009 100.322C194.368 100.891 193.445 101.663 193.445 102.468V142.964C193.445 143.499 192.832 144.012 191.741 144.39C190.65 144.769 189.17 144.981 187.627 144.981C186.085 144.981 184.605 144.769 183.514 144.39C182.423 144.012 181.81 143.499 181.81 142.964V123.862C181.807 123.057 180.884 122.286 179.242 121.716C177.601 121.147 175.376 120.827 173.054 120.826H137.972Z" fill="#DDDDDD" fill-opacity="0.3"/>
<path d="M137.972 120.826V121.845M137.972 120.826H102.891C100.569 120.827 98.3437 121.147 96.7021 121.716C95.0606 122.286 94.1374 123.057 94.1348 123.862V142.964C94.1348 143.499 93.5219 144.012 92.4309 144.39C91.3397 144.769 89.86 144.981 88.3172 144.981C86.7744 144.981 85.2947 144.769 84.2035 144.39C83.1125 144.012 82.4996 143.499 82.4996 142.964V102.468C82.4996 101.663 81.577 100.891 79.9352 100.322C78.293 99.7524 76.0659 99.4326 73.7439 99.4326C71.4217 99.4326 69.1946 99.7524 67.5526 100.322C65.9106 100.891 64.9881 101.663 64.9881 102.468V118.819C64.9863 119.354 64.3728 119.867 63.2822 120.245C62.1916 120.623 60.7129 120.836 59.1705 120.837H45.9443V121.855H59.1705C61.4919 121.854 63.7174 121.534 65.3588 120.965C67.0003 120.396 67.9236 119.624 67.9263 118.819V102.468C67.9263 101.933 68.5392 101.42 69.6302 101.042C70.7212 100.664 72.2009 100.451 73.7439 100.451C75.2868 100.451 76.7664 100.664 77.8576 101.042C78.9485 101.42 79.5614 101.933 79.5614 102.468V142.964C79.5614 143.769 80.484 144.541 82.1259 145.111C83.768 145.68 85.9951 146 88.3172 146C90.6392 146 92.8664 145.68 94.5085 145.111C96.1504 144.541 97.0729 143.769 97.0729 142.964V123.862C97.0747 123.327 97.6882 122.815 98.7788 122.437C99.8695 122.058 101.348 121.846 102.891 121.845H137.972M137.972 120.826H173.054C175.376 120.827 177.601 121.147 179.242 121.716C180.884 122.286 181.807 123.057 181.81 123.862V142.964C181.81 143.499 182.423 144.012 183.514 144.39C184.605 144.769 186.085 144.981 187.627 144.981C189.17 144.981 190.65 144.769 191.741 144.39C192.832 144.012 193.445 143.499 193.445 142.964V102.468C193.445 101.663 194.368 100.891 196.009 100.322C197.652 99.7524 199.879 99.4326 202.201 99.4326C204.523 99.4326 206.75 99.7524 208.392 100.322C210.034 100.891 210.957 101.663 210.957 102.468V118.819C210.958 119.354 211.572 119.867 212.662 120.245C213.753 120.623 215.232 120.836 216.774 120.837H230V121.855H216.774C214.453 121.854 212.227 121.534 210.586 120.965C208.944 120.396 208.021 119.624 208.018 118.819V102.468C208.018 101.933 207.405 101.42 206.314 101.042C205.223 100.664 203.744 100.451 202.201 100.451C200.658 100.451 199.178 100.664 198.087 101.042C196.996 101.42 196.383 101.933 196.383 102.468V142.964C196.383 143.769 195.461 144.541 193.819 145.111C192.177 145.68 189.949 146 187.627 146C185.305 146 183.078 145.68 181.436 145.111C179.794 144.541 178.872 143.769 178.872 142.964V123.862C178.87 123.327 178.256 122.815 177.166 122.437C176.075 122.058 174.596 121.846 173.054 121.845H137.972" stroke="white" stroke-opacity="0.2" stroke-width="0.3"/>
<path d="M136.329 119.394V120.413H101.247C99.7047 120.413 98.2259 120.626 97.1353 121.004C96.0446 121.382 95.4312 121.895 95.4294 122.43V141.531C95.4294 142.336 94.5068 143.109 92.865 143.678C91.2228 144.247 88.9957 144.567 86.6736 144.567C84.3516 144.567 82.1245 144.247 80.4823 143.678C78.8405 143.109 77.9179 142.336 77.9179 141.531V101.036C77.9179 100.501 77.305 99.9878 76.214 99.6095C75.1228 99.2313 73.6432 99.0188 72.1003 99.0188C70.5574 99.0188 69.0777 99.2313 67.9867 99.6095C66.8957 99.9878 66.2827 100.501 66.2827 101.036V117.387C66.2801 118.192 65.3568 118.963 63.7153 119.532C62.0738 120.102 59.8483 120.422 57.527 120.423H44.3008V119.404H57.527C59.0693 119.403 60.548 119.191 61.6386 118.812C62.7293 118.434 63.3428 117.922 63.3445 117.387V101.036C63.3445 100.231 64.267 99.4584 65.909 98.8892C67.5511 98.3198 69.7781 98 72.1003 98C74.4223 98 76.6495 98.3198 78.2916 98.8892C79.9335 99.4584 80.8561 100.231 80.8561 101.036V141.531C80.8561 142.066 81.469 142.579 82.5599 142.958C83.6511 143.336 85.1308 143.548 86.6736 143.548C88.2165 143.548 89.6961 143.336 90.7874 142.958C91.8783 142.579 92.4912 142.066 92.4912 141.531V122.43C92.4939 121.625 93.417 120.853 95.0586 120.284C96.7001 119.715 98.9255 119.395 101.247 119.394H136.329Z" fill="#DDDDDD" fill-opacity="0.7"/>
<path d="M136.329 119.394V120.413H171.411C172.953 120.413 174.432 120.626 175.522 121.004C176.613 121.382 177.226 121.895 177.228 122.43V141.531C177.228 142.336 178.151 143.109 179.793 143.678C181.435 144.247 183.662 144.567 185.984 144.567C188.306 144.567 190.533 144.247 192.175 143.678C193.817 143.109 194.74 142.336 194.74 141.531V101.036C194.74 100.501 195.353 99.9878 196.443 99.6095C197.535 99.2313 199.014 99.0188 200.557 99.0188C202.1 99.0188 203.58 99.2313 204.671 99.6095C205.762 99.9878 206.375 100.501 206.375 101.036V117.387C206.377 118.192 207.301 118.963 208.942 119.532C210.584 120.102 212.809 120.422 215.131 120.423H228.357V119.404H215.131C213.588 119.403 212.109 119.191 211.019 118.812C209.928 118.434 209.315 117.922 209.313 117.387V101.036C209.313 100.231 208.39 99.4584 206.748 98.8892C205.106 98.3198 202.879 98 200.557 98C198.235 98 196.008 98.3198 194.366 98.8892C192.724 99.4584 191.801 100.231 191.801 101.036V141.531C191.801 142.066 191.189 142.579 190.098 142.958C189.006 143.336 187.527 143.548 185.984 143.548C184.441 143.548 182.961 143.336 181.87 142.958C180.779 142.579 180.166 142.066 180.166 141.531V122.43C180.164 121.625 179.24 120.853 177.599 120.284C175.957 119.715 173.732 119.395 171.411 119.394H136.329Z" fill="#DDDDDD" fill-opacity="0.7"/>
<path d="M136.329 119.394V120.413M136.329 119.394H101.247C98.9255 119.395 96.7001 119.715 95.0586 120.284C93.417 120.853 92.4939 121.625 92.4912 122.43V141.531C92.4912 142.066 91.8783 142.579 90.7874 142.958C89.6961 143.336 88.2165 143.548 86.6736 143.548C85.1308 143.548 83.6511 143.336 82.5599 142.958C81.469 142.579 80.8561 142.066 80.8561 141.531V101.036C80.8561 100.231 79.9335 99.4584 78.2916 98.8892C76.6495 98.3198 74.4223 98 72.1003 98C69.7781 98 67.5511 98.3198 65.909 98.8892C64.267 99.4584 63.3445 100.231 63.3445 101.036V117.387C63.3428 117.922 62.7293 118.434 61.6386 118.812C60.548 119.191 59.0693 119.403 57.527 119.404H44.3008V120.423H57.527C59.8483 120.422 62.0738 120.102 63.7153 119.532C65.3568 118.963 66.2801 118.192 66.2827 117.387V101.036C66.2827 100.501 66.8957 99.9878 67.9867 99.6095C69.0777 99.2313 70.5574 99.0188 72.1003 99.0188C73.6432 99.0188 75.1228 99.2313 76.214 99.6095C77.305 99.9878 77.9179 100.501 77.9179 101.036V141.531C77.9179 142.336 78.8405 143.109 80.4823 143.678C82.1245 144.247 84.3516 144.567 86.6736 144.567C88.9957 144.567 91.2228 144.247 92.865 143.678C94.5068 143.109 95.4294 142.336 95.4294 141.531V122.43C95.4312 121.895 96.0446 121.382 97.1353 121.004C98.2259 120.626 99.7047 120.413 101.247 120.413H136.329M136.329 119.394H171.411C173.732 119.395 175.957 119.715 177.599 120.284C179.24 120.853 180.164 121.625 180.166 122.43V141.531C180.166 142.066 180.779 142.579 181.87 142.958C182.961 143.336 184.441 143.548 185.984 143.548C187.527 143.548 189.006 143.336 190.098 142.958C191.189 142.579 191.801 142.066 191.801 141.531V101.036C191.801 100.231 192.724 99.4584 194.366 98.8892C196.008 98.3198 198.235 98 200.557 98C202.879 98 205.106 98.3198 206.748 98.8892C208.39 99.4584 209.313 100.231 209.313 101.036V117.387C209.315 117.922 209.928 118.434 211.019 118.812C212.109 119.191 213.588 119.403 215.131 119.404H228.357V120.423H215.131C212.809 120.422 210.584 120.102 208.942 119.532C207.301 118.963 206.377 118.192 206.375 117.387V101.036C206.375 100.501 205.762 99.9878 204.671 99.6095C203.58 99.2313 202.1 99.0188 200.557 99.0188C199.014 99.0188 197.535 99.2313 196.443 99.6095C195.353 99.9878 194.74 100.501 194.74 101.036V141.531C194.74 142.336 193.817 143.109 192.175 143.678C190.533 144.247 188.306 144.567 185.984 144.567C183.662 144.567 181.435 144.247 179.793 143.678C178.151 143.109 177.228 142.336 177.228 141.531V122.43C177.226 121.895 176.613 121.382 175.522 121.004C174.432 120.626 172.953 120.413 171.411 120.413H136.329" stroke="white" stroke-opacity="0.5" stroke-width="0.3"/>
</g>
<g opacity="0.3" filter="url(#filter1_f_137_12800)">
<path d="M48.8251 69.8622V71.2842H8.8169C7.05809 71.2849 5.37165 71.5818 4.12784 72.1097C2.88404 72.6375 2.1844 73.3532 2.18239 74.0998V100.762C2.18239 101.886 1.13025 102.964 -0.74216 103.759C-2.6149 104.553 -5.15479 105 -7.8029 105C-10.451 105 -12.9909 104.553 -14.8636 103.759C-16.736 102.964 -17.7882 101.886 -17.7882 100.762V44.2376C-17.7882 43.4907 -18.4872 42.7746 -19.7313 42.2466C-20.9758 41.7186 -22.6631 41.422 -24.4227 41.422C-26.1823 41.422 -27.8698 41.7186 -29.114 42.2466C-30.3582 42.7746 -31.0572 43.4907 -31.0572 44.2376V67.0608C-31.0602 68.1842 -32.1132 69.2614 -33.9852 70.0557C-35.8571 70.8502 -38.3952 71.2971 -41.0425 71.2984H-56.126V69.8764H-41.0425C-39.2836 69.8755 -37.5972 69.5786 -36.3534 69.0508C-35.1097 68.5229 -34.41 67.8072 -34.408 67.0608V44.2376C-34.408 43.1136 -33.356 42.0358 -31.4834 41.2411C-29.6108 40.4464 -27.0709 40 -24.4227 40C-21.7746 40 -19.2347 40.4464 -17.362 41.2411C-15.4896 42.0358 -14.4374 43.1136 -14.4374 44.2376V100.762C-14.4374 101.509 -13.7384 102.225 -12.4943 102.753C-11.2498 103.281 -9.56239 103.578 -7.8029 103.578C-6.04341 103.578 -4.35596 103.281 -3.11149 102.753C-1.86735 102.225 -1.16838 101.509 -1.16838 100.762V74.0998C-1.16536 72.9762 -0.112552 71.8991 1.75952 71.1046C3.63159 70.3102 6.16946 69.8633 8.8169 69.8622H48.8251Z" fill="#DDDDDD" fill-opacity="0.3"/>
<path d="M48.8251 69.8622V71.2842H88.8332C90.592 71.2849 92.2785 71.5818 93.5223 72.1097C94.7661 72.6375 95.4657 73.3532 95.4677 74.0998V100.762C95.4677 101.886 96.5199 102.964 98.3923 103.759C100.265 104.553 102.805 105 105.453 105C108.101 105 110.641 104.553 112.514 103.759C114.386 102.964 115.438 101.886 115.438 100.762V44.2376C115.438 43.4907 116.137 42.7746 117.381 42.2466C118.626 41.7186 120.313 41.422 122.073 41.422C123.832 41.422 125.52 41.7186 126.764 42.2466C128.008 42.7746 128.707 43.4907 128.707 44.2376V67.0608C128.71 68.1842 129.763 69.2614 131.635 70.0557C133.507 70.8502 136.045 71.2971 138.693 71.2984H153.776V69.8764H138.693C136.934 69.8755 135.247 69.5786 134.004 69.0508C132.76 68.5229 132.06 67.8072 132.058 67.0608V44.2376C132.058 43.1136 131.006 42.0358 129.133 41.2411C127.261 40.4464 124.721 40 122.073 40C119.425 40 116.885 40.4464 115.012 41.2411C113.14 42.0358 112.088 43.1136 112.088 44.2376V100.762C112.088 101.509 111.389 102.225 110.144 102.753C108.9 103.281 107.213 103.578 105.453 103.578C103.694 103.578 102.006 103.281 100.762 102.753C99.5175 102.225 98.8185 101.509 98.8185 100.762V74.0998C98.8155 72.9762 97.7627 71.8991 95.8906 71.1046C94.0185 70.3102 91.4806 69.8633 88.8332 69.8622H48.8251Z" fill="#DDDDDD" fill-opacity="0.3"/>
<path d="M48.8251 69.8622V71.2842M48.8251 69.8622H8.8169C6.16946 69.8633 3.63159 70.3102 1.75952 71.1046C-0.112552 71.8991 -1.16536 72.9762 -1.16838 74.0998V100.762C-1.16838 101.509 -1.86735 102.225 -3.11149 102.753C-4.35596 103.281 -6.04341 103.578 -7.8029 103.578C-9.56239 103.578 -11.2498 103.281 -12.4943 102.753C-13.7384 102.225 -14.4374 101.509 -14.4374 100.762V44.2376C-14.4374 43.1136 -15.4896 42.0358 -17.362 41.2411C-19.2347 40.4464 -21.7746 40 -24.4227 40C-27.0709 40 -29.6108 40.4464 -31.4834 41.2411C-33.356 42.0358 -34.408 43.1136 -34.408 44.2376V67.0608C-34.41 67.8072 -35.1097 68.5229 -36.3534 69.0508C-37.5972 69.5786 -39.2836 69.8755 -41.0425 69.8764H-56.126V71.2984H-41.0425C-38.3952 71.2971 -35.8571 70.8502 -33.9852 70.0557C-32.1132 69.2614 -31.0602 68.1842 -31.0572 67.0608V44.2376C-31.0572 43.4907 -30.3582 42.7746 -29.114 42.2466C-27.8698 41.7186 -26.1823 41.422 -24.4227 41.422C-22.6631 41.422 -20.9758 41.7186 -19.7313 42.2466C-18.4872 42.7746 -17.7882 43.4907 -17.7882 44.2376V100.762C-17.7882 101.886 -16.736 102.964 -14.8636 103.759C-12.9909 104.553 -10.451 105 -7.8029 105C-5.15479 105 -2.6149 104.553 -0.74216 103.759C1.13025 102.964 2.18239 101.886 2.18239 100.762V74.0998C2.1844 73.3532 2.88404 72.6375 4.12784 72.1097C5.37165 71.5818 7.05809 71.2849 8.8169 71.2842H48.8251M48.8251 69.8622H88.8332C91.4806 69.8633 94.0185 70.3102 95.8906 71.1046C97.7627 71.8991 98.8155 72.9762 98.8185 74.0998V100.762C98.8185 101.509 99.5175 102.225 100.762 102.753C102.006 103.281 103.694 103.578 105.453 103.578C107.213 103.578 108.9 103.281 110.144 102.753C111.389 102.225 112.088 101.509 112.088 100.762V44.2376C112.088 43.1136 113.14 42.0358 115.012 41.2411C116.885 40.4464 119.425 40 122.073 40C124.721 40 127.261 40.4464 129.133 41.2411C131.006 42.0358 132.058 43.1136 132.058 44.2376V67.0608C132.06 67.8072 132.76 68.5229 134.004 69.0508C135.247 69.5786 136.934 69.8755 138.693 69.8764H153.776V71.2984H138.693C136.045 71.2971 133.507 70.8502 131.635 70.0557C129.763 69.2614 128.71 68.1842 128.707 67.0608V44.2376C128.707 43.4907 128.008 42.7746 126.764 42.2466C125.52 41.7186 123.832 41.422 122.073 41.422C120.313 41.422 118.626 41.7186 117.381 42.2466C116.137 42.7746 115.438 43.4907 115.438 44.2376V100.762C115.438 101.886 114.386 102.964 112.514 103.759C110.641 104.553 108.101 105 105.453 105C102.805 105 100.265 104.553 98.3923 103.759C96.5199 102.964 95.4677 101.886 95.4677 100.762V74.0998C95.4657 73.3532 94.7661 72.6375 93.5223 72.1097C92.2785 71.5818 90.592 71.2849 88.8332 71.2842H48.8251" stroke="white" stroke-opacity="0.2" stroke-width="0.3"/>
<path d="M46.951 67.8622V69.2842H6.94288C5.18406 69.2849 3.49762 69.5818 2.25382 70.1097C1.01002 70.6375 0.310374 71.3532 0.308363 72.0998V98.7624C0.308363 99.8862 -0.743775 100.964 -2.61618 101.759C-4.48893 102.553 -7.02881 103 -9.67692 103C-12.325 103 -14.8649 102.553 -16.7377 101.759C-18.6101 100.964 -19.6622 99.8862 -19.6622 98.7624V42.2376C-19.6622 41.4907 -20.3612 40.7746 -21.6053 40.2466C-22.8498 39.7186 -24.5371 39.422 -26.2967 39.422C-28.0563 39.422 -29.7438 39.7186 -30.988 40.2466C-32.2322 40.7746 -32.9312 41.4907 -32.9312 42.2376V65.0608C-32.9343 66.1842 -33.9872 67.2614 -35.8592 68.0557C-37.7311 68.8502 -40.2692 69.2971 -42.9165 69.2984H-58V67.8764H-42.9165C-41.1576 67.8755 -39.4712 67.5786 -38.2275 67.0508C-36.9837 66.5229 -36.2841 65.8072 -36.282 65.0608V42.2376C-36.282 41.1136 -35.23 40.0358 -33.3574 39.2411C-31.4848 38.4464 -28.945 38 -26.2967 38C-23.6486 38 -21.1087 38.4464 -19.236 39.2411C-17.3636 40.0358 -16.3114 41.1136 -16.3114 42.2376V98.7624C-16.3114 99.5091 -15.6125 100.225 -14.3683 100.753C-13.1239 101.281 -11.4364 101.578 -9.67692 101.578C-7.91744 101.578 -6.22999 101.281 -4.98551 100.753C-3.74137 100.225 -3.0424 99.5091 -3.0424 98.7624V72.0998C-3.03939 70.9762 -1.98658 69.8991 -0.114503 69.1046C1.75757 68.3102 4.29544 67.8633 6.94288 67.8622H46.951Z" fill="#DDDDDD" fill-opacity="0.7"/>
<path d="M46.951 67.8622V69.2842H86.9592C88.718 69.2849 90.4044 69.5818 91.6483 70.1097C92.8921 70.6375 93.5917 71.3532 93.5937 72.0998V98.7624C93.5937 99.8862 94.6458 100.964 96.5182 101.759C98.391 102.553 100.931 103 103.579 103C106.227 103 108.767 102.553 110.64 101.759C112.512 100.964 113.564 99.8862 113.564 98.7624V42.2376C113.564 41.4907 114.263 40.7746 115.507 40.2466C116.752 39.7186 118.439 39.422 120.199 39.422C121.958 39.422 123.646 39.7186 124.89 40.2466C126.134 40.7746 126.833 41.4907 126.833 42.2376V65.0608C126.836 66.1842 127.889 67.2614 129.761 68.0557C131.633 68.8502 134.171 69.2971 136.819 69.2984H151.902V67.8764H136.819C135.06 67.8755 133.373 67.5786 132.13 67.0508C130.886 66.5229 130.186 65.8072 130.184 65.0608V42.2376C130.184 41.1136 129.132 40.0358 127.259 39.2411C125.387 38.4464 122.847 38 120.199 38C117.551 38 115.011 38.4464 113.138 39.2411C111.266 40.0358 110.214 41.1136 110.214 42.2376V98.7624C110.214 99.5091 109.515 100.225 108.27 100.753C107.026 101.281 105.338 101.578 103.579 101.578C101.82 101.578 100.132 101.281 98.8876 100.753C97.6434 100.225 96.9445 99.5091 96.9445 98.7624V72.0998C96.9415 70.9762 95.8886 69.8991 94.0166 69.1046C92.1445 68.3102 89.6066 67.8633 86.9592 67.8622H46.951Z" fill="#DDDDDD" fill-opacity="0.7"/>
<path d="M46.951 67.8622V69.2842M46.951 67.8622H6.94288C4.29544 67.8633 1.75757 68.3102 -0.114503 69.1046C-1.98658 69.8991 -3.03939 70.9762 -3.0424 72.0998V98.7624C-3.0424 99.5091 -3.74137 100.225 -4.98551 100.753C-6.22999 101.281 -7.91744 101.578 -9.67692 101.578C-11.4364 101.578 -13.1239 101.281 -14.3683 100.753C-15.6125 100.225 -16.3114 99.5091 -16.3114 98.7624V42.2376C-16.3114 41.1136 -17.3636 40.0358 -19.236 39.2411C-21.1087 38.4464 -23.6486 38 -26.2967 38C-28.945 38 -31.4848 38.4464 -33.3574 39.2411C-35.23 40.0358 -36.282 41.1136 -36.282 42.2376V65.0608C-36.2841 65.8072 -36.9837 66.5229 -38.2275 67.0508C-39.4712 67.5786 -41.1576 67.8755 -42.9165 67.8764H-58V69.2984H-42.9165C-40.2692 69.2971 -37.7311 68.8502 -35.8592 68.0557C-33.9872 67.2614 -32.9343 66.1842 -32.9312 65.0608V42.2376C-32.9312 41.4907 -32.2322 40.7746 -30.988 40.2466C-29.7438 39.7186 -28.0563 39.422 -26.2967 39.422C-24.5371 39.422 -22.8498 39.7186 -21.6053 40.2466C-20.3612 40.7746 -19.6622 41.4907 -19.6622 42.2376V98.7624C-19.6622 99.8862 -18.6101 100.964 -16.7377 101.759C-14.8649 102.553 -12.325 103 -9.67692 103C-7.02881 103 -4.48893 102.553 -2.61618 101.759C-0.743775 100.964 0.308363 99.8862 0.308363 98.7624V72.0998C0.310374 71.3532 1.01002 70.6375 2.25382 70.1097C3.49762 69.5818 5.18406 69.2849 6.94288 69.2842H46.951M46.951 67.8622H86.9592C89.6066 67.8633 92.1445 68.3102 94.0166 69.1046C95.8886 69.8991 96.9415 70.9762 96.9445 72.0998V98.7624C96.9445 99.5091 97.6434 100.225 98.8876 100.753C100.132 101.281 101.82 101.578 103.579 101.578C105.338 101.578 107.026 101.281 108.27 100.753C109.515 100.225 110.214 99.5091 110.214 98.7624V42.2376C110.214 41.1136 111.266 40.0358 113.138 39.2411C115.011 38.4464 117.551 38 120.199 38C122.847 38 125.387 38.4464 127.259 39.2411C129.132 40.0358 130.184 41.1136 130.184 42.2376V65.0608C130.186 65.8072 130.886 66.5229 132.13 67.0508C133.373 67.5786 135.06 67.8755 136.819 67.8764H151.902V69.2984H136.819C134.171 69.2971 131.633 68.8502 129.761 68.0557C127.889 67.2614 126.836 66.1842 126.833 65.0608V42.2376C126.833 41.4907 126.134 40.7746 124.89 40.2466C123.646 39.7186 121.958 39.422 120.199 39.422C118.439 39.422 116.752 39.7186 115.507 40.2466C114.263 40.7746 113.564 41.4907 113.564 42.2376V98.7624C113.564 99.8862 112.512 100.964 110.64 101.759C108.767 102.553 106.227 103 103.579 103C100.931 103 98.391 102.553 96.5182 101.759C94.6458 100.964 93.5937 99.8862 93.5937 98.7624V72.0998C93.5917 71.3532 92.8921 70.6375 91.6483 70.1097C90.4044 69.5818 88.718 69.2849 86.9592 69.2842H46.951" stroke="white" stroke-opacity="0.5" stroke-width="0.3"/>
<path d="M105.05 70.8264V71.8452H65.0415C63.2827 71.8457 61.5963 72.0584 60.3525 72.4366C59.1086 72.8147 58.409 73.3275 58.407 73.8623V92.9639C58.407 93.769 57.3549 94.5412 55.4824 95.1105C53.6097 95.6799 51.0698 95.9998 48.4217 95.9998C45.7736 95.9998 43.2337 95.6799 41.361 95.1105C39.4886 94.5412 38.4364 93.769 38.4364 92.9639V52.4685C38.4364 51.9334 37.7375 51.4204 36.4933 51.0421C35.2488 50.6639 33.5615 50.4514 31.8019 50.4514C30.0423 50.4514 28.3548 50.6639 27.1106 51.0421C25.8664 51.4204 25.1674 51.9334 25.1674 52.4685V68.8195C25.1644 69.6243 24.1114 70.396 22.2394 70.9651C20.3675 71.5342 17.8294 71.8544 15.1821 71.8554H0.0986328V70.8366H15.1821C16.9411 70.836 18.6274 70.6233 19.8712 70.2451C21.1149 69.867 21.8146 69.3542 21.8166 68.8195V52.4685C21.8166 51.6633 22.8686 50.8911 24.7412 50.3218C26.6139 49.7524 29.1537 49.4326 31.8019 49.4326C34.45 49.4326 36.9899 49.7524 38.8626 50.3218C40.7351 50.8911 41.7872 51.6633 41.7872 52.4685V92.9639C41.7872 93.4988 42.4862 94.0119 43.7303 94.3902C44.9748 94.7685 46.6622 94.981 48.4217 94.981C50.1812 94.981 51.8686 94.7685 53.1131 94.3902C54.3573 94.0119 55.0562 93.4988 55.0562 92.9639V73.8623C55.0592 73.0574 56.1121 72.2857 57.9841 71.7165C59.8562 71.1474 62.3941 70.8272 65.0415 70.8264H105.05Z" fill="#DDDDDD" fill-opacity="0.3"/>
<path d="M105.05 70.8264V71.8452H145.058C146.817 71.8457 148.503 72.0584 149.747 72.4366C150.991 72.8147 151.69 73.3275 151.692 73.8623V92.9639C151.692 93.769 152.744 94.5412 154.617 95.1105C156.49 95.6799 159.03 95.9998 161.678 95.9998C164.326 95.9998 166.866 95.6799 168.738 95.1105C170.611 94.5412 171.663 93.769 171.663 92.9639V52.4685C171.663 51.9334 172.362 51.4204 173.606 51.0421C174.85 50.6639 176.538 50.4514 178.297 50.4514C180.057 50.4514 181.745 50.6639 182.989 51.0421C184.233 51.4204 184.932 51.9334 184.932 52.4685V68.8195C184.935 69.6243 185.988 70.396 187.86 70.9651C189.732 71.5342 192.27 71.8544 194.917 71.8554H210.001V70.8366H194.917C193.158 70.836 191.472 70.6233 190.228 70.2451C188.984 69.867 188.285 69.3542 188.283 68.8195V52.4685C188.283 51.6633 187.231 50.8911 185.358 50.3218C183.485 49.7524 180.946 49.4326 178.297 49.4326C175.649 49.4326 173.109 49.7524 171.237 50.3218C169.364 50.8911 168.312 51.6633 168.312 52.4685V92.9639C168.312 93.4988 167.613 94.0119 166.369 94.3902C165.125 94.7685 163.437 94.981 161.678 94.981C159.918 94.981 158.231 94.7685 156.986 94.3902C155.742 94.0119 155.043 93.4988 155.043 92.9639V73.8623C155.04 73.0574 153.987 72.2857 152.115 71.7165C150.243 71.1474 147.705 70.8272 145.058 70.8264H105.05Z" fill="#DDDDDD" fill-opacity="0.3"/>
<path d="M105.05 70.8264V71.8452M105.05 70.8264H65.0415C62.3941 70.8272 59.8562 71.1474 57.9841 71.7165C56.1121 72.2857 55.0592 73.0574 55.0562 73.8623V92.9639C55.0562 93.4988 54.3573 94.0119 53.1131 94.3902C51.8686 94.7685 50.1812 94.981 48.4217 94.981C46.6622 94.981 44.9748 94.7685 43.7303 94.3902C42.4862 94.0119 41.7872 93.4988 41.7872 92.9639V52.4685C41.7872 51.6633 40.7351 50.8911 38.8626 50.3218C36.9899 49.7524 34.45 49.4326 31.8019 49.4326C29.1537 49.4326 26.6139 49.7524 24.7412 50.3218C22.8686 50.8911 21.8166 51.6633 21.8166 52.4685V68.8195C21.8146 69.3542 21.1149 69.867 19.8712 70.2451C18.6274 70.6233 16.9411 70.836 15.1821 70.8366H0.0986328V71.8554H15.1821C17.8294 71.8544 20.3675 71.5342 22.2394 70.9651C24.1114 70.396 25.1644 69.6243 25.1674 68.8195V52.4685C25.1674 51.9334 25.8664 51.4204 27.1106 51.0421C28.3548 50.6639 30.0423 50.4514 31.8019 50.4514C33.5615 50.4514 35.2488 50.6639 36.4933 51.0421C37.7375 51.4204 38.4364 51.9334 38.4364 52.4685V92.9639C38.4364 93.769 39.4886 94.5412 41.361 95.1105C43.2337 95.6799 45.7736 95.9998 48.4217 95.9998C51.0698 95.9998 53.6097 95.6799 55.4824 95.1105C57.3549 94.5412 58.407 93.769 58.407 92.9639V73.8623C58.409 73.3275 59.1086 72.8147 60.3525 72.4366C61.5963 72.0584 63.2827 71.8457 65.0415 71.8452H105.05M105.05 70.8264H145.058C147.705 70.8272 150.243 71.1474 152.115 71.7165C153.987 72.2857 155.04 73.0574 155.043 73.8623V92.9639C155.043 93.4988 155.742 94.0119 156.986 94.3902C158.231 94.7685 159.918 94.981 161.678 94.981C163.437 94.981 165.125 94.7685 166.369 94.3902C167.613 94.0119 168.312 93.4988 168.312 92.9639V52.4685C168.312 51.6633 169.364 50.8911 171.237 50.3218C173.109 49.7524 175.649 49.4326 178.297 49.4326C180.946 49.4326 183.485 49.7524 185.358 50.3218C187.231 50.8911 188.283 51.6633 188.283 52.4685V68.8195C188.285 69.3542 188.984 69.867 190.228 70.2451C191.472 70.6233 193.158 70.836 194.917 70.8366H210.001V71.8554H194.917C192.27 71.8544 189.732 71.5342 187.86 70.9651C185.988 70.396 184.935 69.6243 184.932 68.8195V52.4685C184.932 51.9334 184.233 51.4204 182.989 51.0421C181.745 50.6639 180.057 50.4514 178.297 50.4514C176.538 50.4514 174.85 50.6639 173.606 51.0421C172.362 51.4204 171.663 51.9334 171.663 52.4685V92.9639C171.663 93.769 170.611 94.5412 168.738 95.1105C166.866 95.6799 164.326 95.9998 161.678 95.9998C159.03 95.9998 156.49 95.6799 154.617 95.1105C152.744 94.5412 151.692 93.769 151.692 92.9639V73.8623C151.69 73.3275 150.991 72.8147 149.747 72.4366C148.503 72.0584 146.817 71.8457 145.058 71.8452H105.05" stroke="white" stroke-opacity="0.2" stroke-width="0.3"/>
<path d="M103.175 69.3938V70.4125H63.1665C61.4077 70.4131 59.7213 70.6258 58.4775 71.0039C57.2336 71.3821 56.534 71.8948 56.532 72.4297V91.5313C56.532 92.3364 55.4799 93.1086 53.6074 93.6779C51.7347 94.2473 49.1948 94.5672 46.5467 94.5672C43.8986 94.5672 41.3587 94.2473 39.486 93.6779C37.6136 93.1086 36.5614 92.3364 36.5614 91.5313V51.0359C36.5614 50.5008 35.8625 49.9878 34.6183 49.6095C33.3738 49.2313 31.6865 49.0188 29.9269 49.0188C28.1673 49.0188 26.4798 49.2313 25.2356 49.6095C23.9914 49.9878 23.2924 50.5008 23.2924 51.0359V67.3869C23.2894 68.1917 22.2364 68.9634 20.3644 69.5325C18.4925 70.1016 15.9544 70.4218 13.3071 70.4227H-1.77637V69.404H13.3071C15.0661 69.4034 16.7524 69.1907 17.9962 68.8125C19.2399 68.4343 19.9396 67.9216 19.9416 67.3869V51.0359C19.9416 50.2307 20.9936 49.4584 22.8662 48.8892C24.7389 48.3198 27.2787 48 29.9269 48C32.575 48 35.1149 48.3198 36.9876 48.8892C38.8601 49.4584 39.9122 50.2307 39.9122 51.0359V91.5313C39.9122 92.0662 40.6112 92.5793 41.8553 92.9575C43.0998 93.3359 44.7872 93.5484 46.5467 93.5484C48.3062 93.5484 49.9936 93.3359 51.2381 92.9575C52.4823 92.5793 53.1812 92.0662 53.1812 91.5313V72.4297C53.1842 71.6248 54.2371 70.8531 56.1091 70.2839C57.9812 69.7148 60.5191 69.3946 63.1665 69.3938H103.175Z" fill="#DDDDDD" fill-opacity="0.7"/>
<path d="M103.175 69.3938V70.4125H143.183C144.942 70.4131 146.628 70.6258 147.872 71.0039C149.116 71.3821 149.815 71.8948 149.817 72.4297V91.5313C149.817 92.3364 150.869 93.1086 152.742 93.6779C154.615 94.2473 157.155 94.5672 159.803 94.5672C162.451 94.5672 164.991 94.2473 166.863 93.6779C168.736 93.1086 169.788 92.3364 169.788 91.5313V51.0359C169.788 50.5008 170.487 49.9878 171.731 49.6095C172.975 49.2313 174.663 49.0188 176.422 49.0188C178.182 49.0188 179.87 49.2313 181.114 49.6095C182.358 49.9878 183.057 50.5008 183.057 51.0359V67.3869C183.06 68.1917 184.113 68.9634 185.985 69.5325C187.857 70.1016 190.395 70.4218 193.042 70.4227H208.126V69.404H193.042C191.283 69.4034 189.597 69.1907 188.353 68.8125C187.109 68.4343 186.41 67.9216 186.408 67.3869V51.0359C186.408 50.2307 185.356 49.4584 183.483 48.8892C181.61 48.3198 179.071 48 176.422 48C173.774 48 171.234 48.3198 169.362 48.8892C167.489 49.4584 166.437 50.2307 166.437 51.0359V91.5313C166.437 92.0662 165.738 92.5793 164.494 92.9575C163.25 93.3359 161.562 93.5484 159.803 93.5484C158.043 93.5484 156.356 93.3359 155.111 92.9575C153.867 92.5793 153.168 92.0662 153.168 91.5313V72.4297C153.165 71.6248 152.112 70.8531 150.24 70.2839C148.368 69.7148 145.83 69.3946 143.183 69.3938H103.175Z" fill="#DDDDDD" fill-opacity="0.7"/>
<path d="M103.175 69.3938V70.4125M103.175 69.3938H63.1665C60.5191 69.3946 57.9812 69.7148 56.1091 70.2839C54.2371 70.8531 53.1842 71.6248 53.1812 72.4297V91.5313C53.1812 92.0662 52.4823 92.5793 51.2381 92.9575C49.9936 93.3359 48.3062 93.5484 46.5467 93.5484C44.7872 93.5484 43.0998 93.3359 41.8553 92.9575C40.6112 92.5793 39.9122 92.0662 39.9122 91.5313V51.0359C39.9122 50.2307 38.8601 49.4584 36.9876 48.8892C35.1149 48.3198 32.575 48 29.9269 48C27.2787 48 24.7389 48.3198 22.8662 48.8892C20.9936 49.4584 19.9416 50.2307 19.9416 51.0359V67.3869C19.9396 67.9216 19.2399 68.4343 17.9962 68.8125C16.7524 69.1907 15.0661 69.4034 13.3071 69.404H-1.77637V70.4227H13.3071C15.9544 70.4218 18.4925 70.1016 20.3644 69.5325C22.2364 68.9634 23.2894 68.1917 23.2924 67.3869V51.0359C23.2924 50.5008 23.9914 49.9878 25.2356 49.6095C26.4798 49.2313 28.1673 49.0188 29.9269 49.0188C31.6865 49.0188 33.3738 49.2313 34.6183 49.6095C35.8625 49.9878 36.5614 50.5008 36.5614 51.0359V91.5313C36.5614 92.3364 37.6136 93.1086 39.486 93.6779C41.3587 94.2473 43.8986 94.5672 46.5467 94.5672C49.1948 94.5672 51.7347 94.2473 53.6074 93.6779C55.4799 93.1086 56.532 92.3364 56.532 91.5313V72.4297C56.534 71.8948 57.2336 71.3821 58.4775 71.0039C59.7213 70.6258 61.4077 70.4131 63.1665 70.4125H103.175M103.175 69.3938H143.183C145.83 69.3946 148.368 69.7148 150.24 70.2839C152.112 70.8531 153.165 71.6248 153.168 72.4297V91.5313C153.168 92.0662 153.867 92.5793 155.111 92.9575C156.356 93.3359 158.043 93.5484 159.803 93.5484C161.562 93.5484 163.25 93.3359 164.494 92.9575C165.738 92.5793 166.437 92.0662 166.437 91.5313V51.0359C166.437 50.2307 167.489 49.4584 169.362 48.8892C171.234 48.3198 173.774 48 176.422 48C179.071 48 181.61 48.3198 183.483 48.8892C185.356 49.4584 186.408 50.2307 186.408 51.0359V67.3869C186.41 67.9216 187.109 68.4343 188.353 68.8125C189.597 69.1907 191.283 69.4034 193.042 69.404H208.126V70.4227H193.042C190.395 70.4218 187.857 70.1016 185.985 69.5325C184.113 68.9634 183.06 68.1917 183.057 67.3869V51.0359C183.057 50.5008 182.358 49.9878 181.114 49.6095C179.87 49.2313 178.182 49.0188 176.422 49.0188C174.663 49.0188 172.975 49.2313 171.731 49.6095C170.487 49.9878 169.788 50.5008 169.788 51.0359V91.5313C169.788 92.3364 168.736 93.1086 166.863 93.6779C164.991 94.2473 162.451 94.5672 159.803 94.5672C157.155 94.5672 154.615 94.2473 152.742 93.6779C150.869 93.1086 149.817 92.3364 149.817 91.5313V72.4297C149.815 71.8948 149.116 71.3821 147.872 71.0039C146.628 70.6258 144.942 70.4131 143.183 70.4125H103.175" stroke="white" stroke-opacity="0.5" stroke-width="0.3"/>
</g>
<path d="M139.842 126.932C138.732 127.718 137.583 128.468 136.395 129.177C135.43 129.753 134.452 130.293 133.466 130.799L151.551 161.61C152.642 163.435 155.007 164.032 156.834 162.942C158.662 161.852 159.26 159.486 158.169 157.658L139.842 126.932ZM83.9102 41.1895C59.8505 55.5412 51.9799 86.68 66.3314 110.74C80.0268 133.7 109.009 141.915 132.539 130.147L139.715 125.793C160.742 110.552 167.02 81.5001 153.46 58.7676C139.108 34.7081 107.97 26.8381 83.9102 41.1895ZM87.0291 45.9186C108.526 33.0957 136.348 40.1281 149.171 61.6251C161.994 83.1221 154.962 110.943 133.465 123.766C111.968 136.589 84.1462 129.558 71.3231 108.061C58.5001 86.5643 65.532 58.7417 87.0291 45.9186Z" stroke="white" stroke-opacity="0.1"/>
<path fill-rule="evenodd" clip-rule="evenodd" d="M80.5053 35.481C56.2082 49.9742 48.2606 81.4199 62.7538 105.717C77.247 130.014 108.693 137.962 132.99 123.468C157.287 108.975 165.234 77.5295 150.741 53.2325C136.248 28.9354 104.802 20.9878 80.5053 35.481ZM84.1368 41.069C105.397 28.3874 132.912 35.3416 145.593 56.6015C158.275 77.8614 151.321 105.376 130.061 118.058C108.801 130.74 81.2858 123.785 68.6042 102.525C55.9227 81.2655 62.8768 53.7505 84.1368 41.069Z" fill="#D9D9D9" fill-opacity="0.2"/>
<path d="M136.844 120.931L129.618 125.315L147.971 156.583C149.203 158.649 151.876 159.324 153.941 158.092C156.006 156.86 156.682 154.187 155.45 152.122L136.844 120.931Z" fill="#D9D9D9" fill-opacity="0.2"/>
<path d="M136.693 121.653C135.583 122.439 134.435 123.189 133.246 123.898C132.281 124.474 131.304 125.014 130.318 125.519L148.402 156.331C149.494 158.156 151.858 158.753 153.685 157.663C155.513 156.573 156.111 154.206 155.021 152.378L136.693 121.653ZM80.7618 35.9102C56.702 50.2619 48.8315 81.4007 63.1829 105.461C76.8784 128.42 105.86 136.636 129.39 124.868L136.567 120.514C157.594 105.273 163.872 76.2208 150.312 53.4883C135.96 29.4288 104.822 21.5588 80.7618 35.9102ZM83.8806 40.6393C105.378 27.8164 133.2 34.8488 146.023 56.3458C158.845 77.8428 151.814 105.664 130.317 118.487C108.82 131.31 80.9978 124.279 68.1747 102.782C55.3517 81.285 62.3836 53.4624 83.8806 40.6393Z" stroke="white" stroke-opacity="0.2"/>
<path fill-rule="evenodd" clip-rule="evenodd" d="M77.3559 30.2017C53.0588 44.6949 45.1112 76.1406 59.6044 100.438C74.0976 124.735 105.543 132.682 129.84 118.189C154.137 103.696 162.085 72.2502 147.592 47.9532C133.099 23.6561 101.653 15.7085 77.3559 30.2017ZM80.9874 35.7897C102.247 23.1082 129.762 30.0623 142.444 51.3222C155.125 72.5821 148.171 100.097 126.911 112.779C105.651 125.46 78.1364 118.506 65.4548 97.2462C52.7733 75.9862 59.7274 48.4713 80.9874 35.7897Z" fill="#D9D9D9" fill-opacity="0.4"/>
<path d="M133.695 115.652L126.468 120.035L144.822 151.304C146.054 153.369 148.726 154.045 150.792 152.813C152.857 151.581 153.533 148.908 152.301 146.843L133.695 115.652Z" fill="#D9D9D9" fill-opacity="0.4"/>
<path d="M133.544 116.374C132.434 117.16 131.285 117.91 130.097 118.618C129.132 119.194 128.155 119.734 127.169 120.24L145.253 151.051C146.344 152.877 148.709 153.474 150.536 152.384C152.364 151.293 152.962 148.927 151.872 147.099L133.544 116.374ZM77.6124 30.6309C53.5526 44.9826 45.6821 76.1214 60.0335 100.181C73.729 123.141 102.711 131.356 126.241 119.588L133.417 115.235C154.445 99.9933 160.722 70.9415 147.162 48.209C132.81 24.1495 101.672 16.2796 77.6124 30.6309ZM80.7312 35.36C102.228 22.5371 130.05 29.5695 142.873 51.0665C155.696 72.5635 148.664 100.385 127.167 113.208C105.67 126.031 77.8483 119 65.0253 97.5027C52.2023 76.0057 59.2342 48.1831 80.7312 35.36Z" stroke="white" stroke-opacity="0.4"/>
<path fill-rule="evenodd" clip-rule="evenodd" d="M74.9946 26.2423C50.6975 40.7355 42.7499 72.1812 57.2431 96.4782C71.7363 120.775 103.182 128.723 127.479 114.23C151.776 99.7365 159.724 68.2908 145.231 43.9937C130.737 19.6967 99.2916 11.7491 74.9946 26.2423ZM78.626 31.8302C99.886 19.1487 127.401 26.1028 140.083 47.3628C152.764 68.6227 145.81 96.1377 124.55 108.819C103.29 121.501 75.775 114.547 63.0935 93.2867C50.4119 72.0268 57.3661 44.5118 78.626 31.8302Z" fill="#D9D9D9" fill-opacity="0.6"/>
<path d="M131.334 111.692L124.107 116.076L142.46 147.345C143.692 149.41 146.365 150.085 148.43 148.854C150.496 147.622 151.171 144.949 149.939 142.883L131.334 111.692Z" fill="#D9D9D9" fill-opacity="0.6"/>
<path d="M131.183 112.414C130.073 113.2 128.924 113.95 127.736 114.659C126.77 115.235 125.793 115.775 124.807 116.281L142.892 147.092C143.983 148.917 146.348 149.514 148.175 148.424C150.003 147.334 150.601 144.967 149.51 143.139L131.183 112.414ZM75.2511 26.6715C51.1913 41.0231 43.3207 72.162 57.6722 96.2218C71.3676 119.181 100.35 127.397 123.879 115.629L131.056 111.275C152.083 96.0339 158.361 66.982 144.801 44.2495C130.449 20.19 99.3108 12.3201 75.2511 26.6715ZM78.3699 31.4006C99.867 18.5777 127.689 25.61 140.512 47.107C153.335 68.604 146.303 96.4254 124.806 109.248C103.309 122.071 75.487 115.04 62.6639 93.5433C49.8409 72.0462 56.8728 44.2236 78.3699 31.4006Z" stroke="white" stroke-opacity="0.6"/>
</g>
<defs>
<filter id="filter0_f_137_12800" x="-7.15039" y="85.8501" width="239.301" height="71.2998" filterUnits="userSpaceOnUse" color-interpolation-filters="sRGB">
<feFlood flood-opacity="0" result="BackgroundImageFix"/>
<feBlend mode="normal" in="SourceGraphic" in2="BackgroundImageFix" result="shape"/>
<feGaussianBlur stdDeviation="1" result="effect1_foregroundBlur_137_12800"/>
</filter>
<filter id="filter1_f_137_12800" x="-60.1504" y="35.8501" width="272.301" height="71.2998" filterUnits="userSpaceOnUse" color-interpolation-filters="sRGB">
<feFlood flood-opacity="0" result="BackgroundImageFix"/>
<feBlend mode="normal" in="SourceGraphic" in2="BackgroundImageFix" result="shape"/>
<feGaussianBlur stdDeviation="1" result="effect1_foregroundBlur_137_12800"/>
</filter>
<clipPath id="clip0_137_12800">
<rect width="212" height="175" fill="white"/>
</clipPath>
</defs>
</svg>
