<svg width="126" height="222" viewBox="0 0 126 222" fill="none" xmlns="http://www.w3.org/2000/svg">
<g opacity="0.8">
<path d="M62.584 147.038C76.7048 147.038 87.1797 148.991 95.4404 153.084C103.691 157.172 109.779 163.419 115.089 172.095C120.05 180.2 123.818 189.917 124.466 198.599C125.113 207.274 122.648 214.812 115.277 218.803C110.551 221.362 106.399 222.049 102.952 221.079C99.5149 220.112 96.6717 217.465 94.6172 213.128C92.7029 209.086 88.0618 206.028 82.29 203.98C76.4955 201.925 69.4555 200.85 62.584 200.851C55.7125 200.851 48.6734 201.926 42.8789 203.981C37.1071 206.029 32.4662 209.086 30.5518 213.128C28.4977 217.465 25.6542 220.112 22.2168 221.079C18.77 222.049 14.6181 221.362 9.8916 218.803C2.52093 214.812 0.055962 207.274 0.703125 198.599C1.35087 189.917 5.11912 180.2 10.0801 172.095C15.3897 163.419 21.4777 157.172 29.7285 153.084C37.9891 148.991 48.4634 147.038 62.584 147.038Z" stroke="#FFFCFC" stroke-opacity="0.1"/>
<path d="M62.584 129.754C76.7048 129.754 87.1797 131.706 95.4404 135.8C103.691 139.888 109.779 146.135 115.089 154.811C120.05 162.916 123.818 172.632 124.466 181.314C125.113 189.99 122.648 197.528 115.277 201.519C110.551 204.078 106.399 204.765 102.952 203.795C99.5149 202.827 96.6717 200.181 94.6172 195.844C92.7029 191.802 88.0618 188.743 82.29 186.696C76.4955 184.641 69.4555 183.566 62.584 183.566C55.7125 183.567 48.6734 184.642 42.8789 186.697C37.1071 188.744 32.4662 191.802 30.5518 195.844C28.4977 200.181 25.6542 202.827 22.2168 203.795C18.77 204.765 14.6181 204.078 9.8916 201.519C2.52093 197.528 0.055962 189.99 0.703125 181.314C1.35087 172.632 5.11912 162.916 10.0801 154.811C15.3897 146.135 21.4777 139.888 29.7285 135.8C37.9891 131.706 48.4634 129.754 62.584 129.754Z" stroke="#FFFCFC" stroke-opacity="0.2"/>
<path d="M62.584 114.938C76.7048 114.939 87.1797 116.891 95.4404 120.984C103.691 125.073 109.779 131.32 115.089 139.995C120.05 148.101 123.818 157.817 124.466 166.499C125.113 175.174 122.648 182.712 115.277 186.703C110.551 189.263 106.399 189.95 102.952 188.979C99.5149 188.012 96.6717 185.366 94.6172 181.028C92.7029 176.986 88.0618 173.928 82.29 171.881C76.4955 169.826 69.4555 168.751 62.584 168.751C55.7125 168.751 48.6734 169.827 42.8789 171.882C37.1071 173.929 32.4662 176.987 30.5518 181.028C28.4977 185.366 25.6542 188.012 22.2168 188.979C18.77 189.95 14.6181 189.263 9.8916 186.703C2.52093 182.712 0.055962 175.174 0.703125 166.499C1.35087 157.817 5.11912 148.101 10.0801 139.995C15.3897 131.32 21.4777 125.073 29.7285 120.984C37.9891 116.891 48.4634 114.939 62.584 114.938Z" stroke="#FFFCFC" stroke-opacity="0.3"/>
<path d="M115.515 123.533C104.824 106.065 90.9083 98.237 62.5843 98.2368C34.2602 98.237 20.3442 106.065 9.65347 123.533C-0.323504 139.834 -5.56636 162.701 9.65337 170.941C19.2433 176.134 26.8097 173.896 31.0034 165.041C34.659 157.323 48.9347 153.05 62.5843 153.05C76.2339 153.049 90.5096 157.322 94.1651 165.041C98.3597 173.896 105.925 176.134 115.515 170.941C130.735 162.701 125.492 139.834 115.515 123.533Z" fill="#ECECEC" fill-opacity="0.1"/>
<path d="M62.584 98.7368C76.7048 98.7369 87.1797 100.689 95.4404 104.783C103.691 108.871 109.779 115.118 115.089 123.793C120.05 131.899 123.818 141.615 124.466 150.297C125.113 158.973 122.648 166.511 115.277 170.501C110.551 173.061 106.399 173.748 102.952 172.778C99.5149 171.81 96.6717 169.164 94.6172 164.827C92.7029 160.785 88.0618 157.726 82.29 155.679C76.4955 153.624 69.4555 152.549 62.584 152.549C55.7125 152.549 48.6734 153.625 42.8789 155.68C37.1071 157.727 32.4662 160.785 30.5518 164.827C28.4977 169.164 25.6542 171.81 22.2168 172.778C18.77 173.748 14.6181 173.061 9.8916 170.501C2.52093 166.511 0.055962 158.973 0.703125 150.297C1.35087 141.615 5.11912 131.899 10.0801 123.793C15.3897 115.118 21.4777 108.871 29.7285 104.783C37.9891 100.689 48.4634 98.7369 62.584 98.7368Z" stroke="#FFFCFC" stroke-opacity="0.4"/>
<path d="M115.515 109.799C104.824 92.3315 90.9083 84.5031 62.5843 84.5029C34.2602 84.5031 20.3442 92.3315 9.65347 109.799C-0.323504 126.1 -5.56636 148.967 9.65337 157.207C19.2433 162.401 26.8097 160.162 31.0034 151.307C34.659 143.589 48.9347 139.316 62.5843 139.316C76.2339 139.315 90.5096 143.588 94.1651 151.307C98.3597 160.162 105.925 162.401 115.515 157.207C130.735 148.967 125.492 126.1 115.515 109.799Z" fill="#ECECEC" fill-opacity="0.3"/>
<path d="M62.584 85.0029C76.7048 85.003 87.1797 86.9555 95.4404 91.0488C103.691 95.1373 109.779 101.384 115.089 110.06C120.05 118.165 123.818 127.881 124.466 136.563C125.113 145.239 122.648 152.777 115.277 156.768C110.551 159.327 106.399 160.014 102.952 159.044C99.5149 158.076 96.6717 155.43 94.6172 151.093C92.7029 147.051 88.0618 143.992 82.29 141.945C76.4955 139.89 69.4555 138.815 62.584 138.815C55.7125 138.816 48.6734 139.891 42.8789 141.946C37.1071 143.993 32.4662 147.051 30.5518 151.093C28.4977 155.43 25.6542 158.076 22.2168 159.044C18.77 160.014 14.6181 159.327 9.8916 156.768C2.52093 152.777 0.055962 145.239 0.703125 136.563C1.35087 127.881 5.11912 118.165 10.0801 110.06C15.3897 101.384 21.4777 95.1373 29.7285 91.0488C37.9891 86.9555 48.4634 85.0031 62.584 85.0029Z" stroke="#FFFCFC" stroke-opacity="0.5"/>
<path d="M115.515 98.5357C104.824 81.0683 90.9083 73.2399 62.5843 73.2397C34.2602 73.2399 20.3442 81.0683 9.65347 98.5357C-0.323504 114.837 -5.56636 137.703 9.65337 145.944C19.2433 151.137 26.8097 148.899 31.0034 140.044C34.659 132.326 48.9347 128.053 62.5843 128.052C76.2339 128.052 90.5096 132.325 94.1651 140.044C98.3597 148.899 105.925 151.137 115.515 145.944C130.735 137.703 125.492 114.837 115.515 98.5357Z" fill="#ECECEC" fill-opacity="0.3"/>
<path d="M62.584 73.7397C76.7048 73.7398 87.1797 75.6923 95.4404 79.7856C103.691 83.8741 109.779 90.1211 115.089 98.7964C120.05 106.902 123.818 116.618 124.466 125.3C125.113 133.976 122.648 141.513 115.277 145.504C110.551 148.064 106.399 148.751 102.952 147.781C99.5149 146.813 96.6717 144.167 94.6172 139.83C92.7029 135.788 88.0618 132.729 82.29 130.682C76.4955 128.627 69.4555 127.552 62.584 127.552C55.7125 127.552 48.6734 128.628 42.8789 130.683C37.1071 132.73 32.4662 135.788 30.5518 139.83C28.4977 144.167 25.6542 146.813 22.2168 147.781C18.77 148.751 14.6181 148.064 9.8916 145.504C2.52093 141.513 0.055962 133.976 0.703125 125.3C1.35087 116.618 5.11912 106.902 10.0801 98.7964C15.3897 90.1211 21.4777 83.8741 29.7285 79.7856C37.9891 75.6923 48.4634 73.7399 62.584 73.7397Z" stroke="#FFFCFC" stroke-opacity="0.5"/>
<path d="M115.411 89.7408C104.72 72.2734 90.8038 64.445 62.4798 64.4448C34.1557 64.445 20.2397 72.2734 9.54898 89.7408C-0.427996 106.042 -5.67085 128.909 9.54888 137.149C19.1388 142.342 26.7052 140.104 30.8989 131.249C34.5545 123.531 48.8302 119.258 62.4798 119.258C76.1294 119.257 90.4051 123.53 94.0607 131.249C98.2552 140.104 105.821 142.342 115.411 137.149C130.63 128.909 125.388 106.042 115.411 89.7408Z" fill="url(#paint0_linear_119_4501)" fill-opacity="0.5"/>
<path d="M62.4795 64.9448C76.6003 64.9449 87.0752 66.8973 95.3359 70.9907C103.587 75.0792 109.675 81.3262 114.984 90.0015C119.945 98.1072 123.714 107.823 124.361 116.505C125.008 125.181 122.543 132.719 115.173 136.709C110.446 139.269 106.294 139.956 102.848 138.986C99.4104 138.018 96.5672 135.372 94.5127 131.035C92.5984 126.993 87.9573 123.934 82.1855 121.887C76.391 119.832 69.351 118.757 62.4795 118.757C55.608 118.757 48.5689 119.833 42.7744 121.888C37.0027 123.935 32.3617 126.993 30.4473 131.035C28.3932 135.372 25.5497 138.018 22.1123 138.986C18.6655 139.956 14.5136 139.269 9.78711 136.709C2.41644 132.719 -0.0485302 125.181 0.598633 116.505C1.24637 107.823 5.01463 98.1072 9.97559 90.0015C15.2852 81.3261 21.3732 75.0792 29.624 70.9907C37.8846 66.8974 48.3589 64.9449 62.4795 64.9448Z" stroke="white" stroke-opacity="0.7"/>
<g filter="url(#filter0_i_119_4501)">
<ellipse cx="37.7801" cy="98.3964" rx="15.4236" ry="13.457" fill="#686868" fill-opacity="0.2"/>
</g>
<path d="M37.7803 85.1895C46.1935 85.1895 52.9541 91.1335 52.9541 98.3965C52.9541 105.659 46.1934 111.603 37.7803 111.604C29.367 111.604 22.6065 105.66 22.6064 98.3965C22.6064 91.1334 29.367 85.1895 37.7803 85.1895Z" stroke="white" stroke-width="0.5"/>
<g filter="url(#filter1_i_119_4501)">
<rect x="59.7129" y="84.9395" width="39.3374" height="9.62976" rx="4.81488" fill="#686868" fill-opacity="0.2"/>
</g>
<rect x="59.9629" y="85.1895" width="38.8374" height="9.12976" rx="4.56488" stroke="white" stroke-width="0.5"/>
<g filter="url(#filter2_i_119_4501)">
<rect x="59.7129" y="99.7544" width="21.2252" height="9.62976" rx="4.81488" fill="#686868" fill-opacity="0.2"/>
</g>
<rect x="59.9629" y="100.004" width="20.7252" height="9.12976" rx="4.56488" stroke="white" stroke-width="0.5"/>
<g filter="url(#filter3_i_119_4501)">
<rect x="84.334" y="99.7544" width="21.2252" height="9.62976" rx="4.81488" fill="#686868" fill-opacity="0.2"/>
</g>
<rect x="84.584" y="100.004" width="20.7252" height="9.12976" rx="4.56488" stroke="white" stroke-width="0.5"/>
<path d="M63.6138 56.0502H61.4531V34.6834C61.452 33.7441 61.0008 32.8434 60.1988 32.1792C59.3967 31.5149 58.3092 31.1412 57.1748 31.1402H16.6607C14.9531 31.1402 13.3152 30.5783 12.1078 29.5783C10.9002 28.5781 10.2217 27.2217 10.2217 25.8074C10.2217 24.3932 10.9002 23.0367 12.1078 22.0366C13.3152 21.0366 14.9531 20.4747 16.6607 20.4747L102.551 20.4747C103.685 20.4747 104.774 20.1014 105.576 19.437C106.378 18.7723 106.829 17.8712 106.829 16.9315C106.829 15.9917 106.378 15.0905 105.576 14.426C104.774 13.7615 103.685 13.3882 102.551 13.3882H67.8705C66.1635 13.3866 64.5267 12.8243 63.3197 11.8245C62.1125 10.8248 61.4334 9.46932 61.4315 8.05548V0L63.5922 0V8.05548C63.5935 8.99487 64.0447 9.89548 64.8467 10.5597C65.6488 11.224 66.7363 11.5976 67.8705 11.5987H102.551C104.258 11.5987 105.896 12.1605 107.104 13.1606C108.311 14.1607 108.99 15.5171 108.99 16.9315C108.99 18.3457 108.311 19.7022 107.104 20.7023C105.896 21.7023 104.258 22.2642 102.551 22.2642L16.6607 22.2642C15.5261 22.2642 14.4379 22.6375 13.6357 23.3019C12.8332 23.9666 12.3824 24.8678 12.3824 25.8074C12.3824 26.7471 12.8332 27.6483 13.6357 28.3129C14.4379 28.9774 15.5261 29.3507 16.6607 29.3507H57.1748C58.882 29.3523 60.5188 29.9145 61.726 30.9143C62.933 31.9141 63.6121 33.2695 63.6138 34.6834V56.0502Z" fill="#DDDDDD" fill-opacity="0.7"/>
<path d="M67.0223 56.0508H58.4297V58.0752H67.0223V56.0508Z" fill="#DDDDDD" fill-opacity="0.7"/>
<path d="M68.438 57.959H57.0156V59.9834H68.438V57.959Z" fill="#ECECEC" fill-opacity="0.7"/>
<path d="M67.0223 59.8677H58.4297V61.8921H67.0223V59.8677Z" fill="#DDDDDD" fill-opacity="0.7"/>
<path d="M68.438 61.7759H57.0156V63.8003H68.438V61.7759Z" fill="#ECECEC" fill-opacity="0.7"/>
<path d="M68.3052 65.1289H56.8828V67.1533H68.3052V65.1289Z" fill="#ECECEC" fill-opacity="0.7"/>
<path d="M67.0719 63.7041H58.2988V65.1856H67.0719V63.7041Z" fill="#DDDDDD" fill-opacity="0.7"/>
<path d="M67.0223 67.188H58.4297V69.2124H67.0223V67.188Z" fill="#DDDDDD" fill-opacity="0.7"/>
</g>
<defs>
<filter id="filter0_i_119_4501" x="22.3564" y="84.9395" width="30.8477" height="26.9141" filterUnits="userSpaceOnUse" color-interpolation-filters="sRGB">
<feFlood flood-opacity="0" result="BackgroundImageFix"/>
<feBlend mode="normal" in="SourceGraphic" in2="BackgroundImageFix" result="shape"/>
<feColorMatrix in="SourceAlpha" type="matrix" values="0 0 0 0 0 0 0 0 0 0 0 0 0 0 0 0 0 0 127 0" result="hardAlpha"/>
<feOffset dy="2"/>
<feComposite in2="hardAlpha" operator="arithmetic" k2="-1" k3="1"/>
<feColorMatrix type="matrix" values="0 0 0 0 0 0 0 0 0 0 0 0 0 0 0 0 0 0 0.25 0"/>
<feBlend mode="normal" in2="shape" result="effect1_innerShadow_119_4501"/>
</filter>
<filter id="filter1_i_119_4501" x="59.7129" y="84.9395" width="39.3369" height="9.62988" filterUnits="userSpaceOnUse" color-interpolation-filters="sRGB">
<feFlood flood-opacity="0" result="BackgroundImageFix"/>
<feBlend mode="normal" in="SourceGraphic" in2="BackgroundImageFix" result="shape"/>
<feColorMatrix in="SourceAlpha" type="matrix" values="0 0 0 0 0 0 0 0 0 0 0 0 0 0 0 0 0 0 127 0" result="hardAlpha"/>
<feOffset dy="2"/>
<feComposite in2="hardAlpha" operator="arithmetic" k2="-1" k3="1"/>
<feColorMatrix type="matrix" values="0 0 0 0 0 0 0 0 0 0 0 0 0 0 0 0 0 0 0.25 0"/>
<feBlend mode="normal" in2="shape" result="effect1_innerShadow_119_4501"/>
</filter>
<filter id="filter2_i_119_4501" x="59.7129" y="99.7544" width="21.2256" height="9.62988" filterUnits="userSpaceOnUse" color-interpolation-filters="sRGB">
<feFlood flood-opacity="0" result="BackgroundImageFix"/>
<feBlend mode="normal" in="SourceGraphic" in2="BackgroundImageFix" result="shape"/>
<feColorMatrix in="SourceAlpha" type="matrix" values="0 0 0 0 0 0 0 0 0 0 0 0 0 0 0 0 0 0 127 0" result="hardAlpha"/>
<feOffset dy="2"/>
<feComposite in2="hardAlpha" operator="arithmetic" k2="-1" k3="1"/>
<feColorMatrix type="matrix" values="0 0 0 0 0 0 0 0 0 0 0 0 0 0 0 0 0 0 0.25 0"/>
<feBlend mode="normal" in2="shape" result="effect1_innerShadow_119_4501"/>
</filter>
<filter id="filter3_i_119_4501" x="84.334" y="99.7544" width="21.2256" height="9.62988" filterUnits="userSpaceOnUse" color-interpolation-filters="sRGB">
<feFlood flood-opacity="0" result="BackgroundImageFix"/>
<feBlend mode="normal" in="SourceGraphic" in2="BackgroundImageFix" result="shape"/>
<feColorMatrix in="SourceAlpha" type="matrix" values="0 0 0 0 0 0 0 0 0 0 0 0 0 0 0 0 0 0 127 0" result="hardAlpha"/>
<feOffset dy="2"/>
<feComposite in2="hardAlpha" operator="arithmetic" k2="-1" k3="1"/>
<feColorMatrix type="matrix" values="0 0 0 0 0 0 0 0 0 0 0 0 0 0 0 0 0 0 0.25 0"/>
<feBlend mode="normal" in2="shape" result="effect1_innerShadow_119_4501"/>
</filter>
<linearGradient id="paint0_linear_119_4501" x1="62.5323" y1="31.4683" x2="62.5322" y2="116.721" gradientUnits="userSpaceOnUse">
<stop stop-color="#868686"/>
<stop offset="1" stop-color="#ECECEC"/>
</linearGradient>
</defs>
</svg>
