<svg width="39" height="33" viewBox="0 0 39 33" fill="none" xmlns="http://www.w3.org/2000/svg">
<path d="M31 0C35.4183 0 39 3.58172 39 8V25C39 29.4183 35.4183 33 31 33H8C3.58172 33 1.28855e-07 29.4183 0 25V8C1.28855e-07 3.58172 3.58172 5.63724e-08 8 0H31ZM20.8906 7.33398C20.5228 6.92232 19.8914 6.8864 19.4795 7.25391C19.0676 7.62179 19.0316 8.2541 19.3994 8.66602L25.0566 15H13C12.4477 15 12 15.4477 12 16C12 16.5523 12.4477 17 13 17H25.0566L19.3994 23.334C19.0316 23.7459 19.0676 24.3782 19.4795 24.7461C19.8914 25.1136 20.5228 25.0777 20.8906 24.666L28.0361 16.666C28.375 16.2866 28.375 15.7134 28.0361 15.334L20.8906 7.33398Z" fill="#002845"/>
</svg>
